<svg aria-labelledby="pi-cacpay" role="img" xmlns="http://www.w3.org/2000/svg" width="38" height="24" viewBox="0 0 38 24"><title id="pi-cacpay">Cacpay</title><defs><style>.uuid-55c9709a-5f8e-47e0-b722-1bc7f7aa17ea{fill:#254e97}.uuid-e006bb44-a1f1-4df0-ac1e-b6677cdfe4fa{fill:#fad504}.uuid-e14c33af-f410-4241-b431-a1ef45804b3d{fill:#fad503}.uuid-9e2095a9-6572-4c26-b4a4-7acaecb8047f{fill:#285096}.uuid-9fc5073b-75e5-4371-8915-0accc9af2b45{fill:#214c99}.uuid-32e04fc7-20be-46de-ab3a-c2843d09aa03{fill:#234d98}.uuid-f76bd861-fde3-44d4-91b0-b6d1087b1b00{fill:#f8d307}.uuid-ae13bb1e-f4a3-4935-8578-c2f15d2d615a{fill:#204c99}</style></defs><path d="M35 0H3C1.3 0 0 1.3 0 3v18c0 1.7 1.4 3 3 3h32c1.7 0 3-1.3 3-3V3c0-1.7-1.4-3-3-3zm2 21c0 1.1-.9 2-2 2H3c-1.1 0-2-.9-2-2V3c0-1.1.9-2 2-2h32c1.1 0 2 .9 2 2v18z" style="isolation:isolate" opacity=".07"/><path class="uuid-9fc5073b-75e5-4371-8915-0accc9af2b45" d="M36.57 6.47c-.08.11-.16.22-.23.33-.39.58-.79 1.15-1.18 1.73-.03.04-.03.07-.03.12v1.55c0 .05-.01.06-.06.06h-.69c-.04 0-.06-.01-.06-.06V8.64c0-.04 0-.07-.03-.11-.46-.68-.91-1.35-1.36-2.03-.01-.02-.02-.03-.03-.05.01-.02.03 0 .04 0h.79c.04 0 .06.01.08.04.29.46.59.91.88 1.37.01.02.02.03.03.05.02-.01.03-.04.04-.05l.87-1.35c.03-.04.05-.05.1-.05h.85v.02z"/><path class="uuid-e006bb44-a1f1-4df0-ac1e-b6677cdfe4fa" d="M24.87 11.47h3.98c.17 0 .31.06.39.2.04.06.05.12.05.19v4.27c0 .09 0 .17-.05.24-.08.14-.2.2-.36.21h-8.02c-.15 0-.27-.04-.36-.16a.465.465 0 01-.09-.23v-.06-4.24c0-.06 0-.12.03-.18a.4.4 0 01.35-.26h4.06zm1.76 1.4s-.01-.04-.01-.06v-.57c0-.05.02-.12-.01-.15-.03-.02-.09 0-.14 0-.05 0-.06 0-.06.06v1.43c0 .05.05.08.1.09.07 0 .11-.04.11-.12v-.58c0-.02-.01-.04.01-.06.08.23.15.46.23.69.02.04.05.07.1.06.07 0 .11-.07.08-.15-.05-.15-.09-.29-.16-.43a.554.554 0 01-.01-.42c.06-.18.11-.37.16-.56h-.1c-.1 0-.1 0-.13.1-.06.23-.12.45-.19.68zm-1.89 1.48c-.08.14-.15.29-.23.43-.05.08-.06.16-.05.25 0 .03.01.04.04.04h.19c.08 0 .11.04.12.12v.14c0 .07-.01.08-.08.08h-.75c-.03 0-.04 0-.04-.04 0-.07 0-.14-.01-.22-.03-.14-.11-.22-.25-.23h-.2c-.04 0-.05 0-.05.05v.5c0 .18-.07.27-.25.3-.27.04-.43-.13-.35-.38.01-.03.05-.07.03-.1-.02-.03-.06-.05-.09-.07-.02-.02-.03 0-.05.01a.68.68 0 00-.08.24c-.03.24.11.45.33.5.11.03.22.02.32-.01.2-.06.31-.22.32-.45v-.35c0-.03 0-.04.04-.04.08 0 .12.03.13.11.02.11 0 .22 0 .33 0 .05 0 .06.06.06h.89c.1 0 .18-.02.23-.11.07.1.09.11.2.11h.53c.1 0 .19-.01.25-.12.05.1.13.12.22.12h.88c.08 0 .07.01.07-.07v-.5c0-.13 0-.12-.13-.12-.04 0-.05.02-.05.05v.38c0 .04-.01.05-.05.05h-.74c-.12 0-.15-.04-.16-.15v-.22c0-.12 0-.12-.12-.12-.04 0-.05 0-.05.05v.35c0 .08-.01.09-.09.09h-.58c-.07 0-.11-.03-.13-.11 0-.05 0-.09-.01-.14-.01-.19-.12-.29-.27-.29-.04 0-.04-.02-.02-.05.04-.07.08-.15.12-.22.02-.05.08-.09.07-.14-.01-.05-.08-.07-.12-.1zm.29-1.67c.04.11.07.22.1.33.06.18.13.36.11.55 0 .05.04.09.09.09.08 0 .12-.04.12-.12v-1.27c0-.05.03-.13-.01-.16-.03-.03-.11 0-.16 0-.03 0-.04 0-.04.04V12.82c-.07-.19-.12-.38-.18-.57-.02-.05-.01-.12-.05-.15-.04-.02-.11 0-.16 0-.04 0-.04.01-.04.05v1.44c.01.05.04.07.09.08.08.01.13-.03.13-.12v-.78c0-.02 0-.04.01-.07zm-2.94.16c.14-.03.16-.12.16-.23v-.27c0-.16-.1-.25-.26-.26h-.33c-.04 0-.05.01-.05.05V13.52c0 .09.04.12.12.12h.33c.13 0 .21-.08.21-.21v-.42a.16.16 0 00-.08-.14c-.02-.01-.05-.02-.09-.05zm1.11.09v.61c0 .06.03.1.08.11.08.02.13-.03.13-.11v-.42c0-.03 0-.05.04-.05h.15c.04 0 .05.01.05.05v.41c0 .07.04.11.11.11s.1-.04.1-.13v-1.15-.1c-.02-.11-.09-.18-.2-.18h-.24c-.11 0-.18.07-.2.17v.67zm4.91-.09v-.59c0-.05.02-.12 0-.15-.03-.04-.1 0-.15-.01-.04 0-.05.01-.05.05v1.41c0 .06.04.1.11.1s.11-.04.11-.12v-.7zm-5.04 3.31c0-.06-.04-.1-.09-.1-.05 0-.09.05-.09.1 0 .06.04.1.09.1.05 0 .09-.04.09-.1zm.23 0c0-.06-.04-.1-.09-.1-.05 0-.09.04-.09.1 0 .06.04.1.09.11.05 0 .09-.04.09-.1zm3.28-.33c0-.06-.04-.1-.09-.1-.05 0-.09.05-.09.1 0 .06.04.1.09.1.05 0 .09-.04.09-.1zm-1.05-1.18c0-.06-.04-.1-.09-.1-.05 0-.09.05-.09.1 0 .06.04.1.09.1.05 0 .09-.04.09-.1z"/><path class="uuid-ae13bb1e-f4a3-4935-8578-c2f15d2d615a" d="M5.78 6.44c.68 0 1.35 0 2.03.01.73.02 1.4.23 1.98.66.76.56 1.22 1.31 1.37 2.25.19 1.18-.3 2.48-1.23 3.25-.44.36-.94.57-1.49.68-.42.09-.85.09-1.28.09H5.9c-.04 0-.08 0-.11.02-.14.05-.17.07-.17.22-.02.4 0 .79 0 1.19v2.12c-.01.35-.26.61-.62.64a.636.636 0 01-.7-.64c0-.19.01-.38-.01-.57-.01-.09-.01-.19-.01-.28v-1.09c.02-.74.02-1.47.02-2.21 0-.08.01-.17.03-.25.06-.26.22-.41.48-.46.13-.03.27-.02.4-.02h2.44c.4 0 .78-.07 1.12-.28.6-.36.99-.88 1.11-1.57.07-.4-.01-.78-.18-1.15-.2-.45-.5-.82-.95-1.06-.33-.17-.68-.23-1.04-.24-1.34-.02-2.69 0-4.03 0-.14 0-.27-.01-.4-.07a.574.574 0 01-.37-.52c-.03-.42.23-.71.65-.73.39-.02.78 0 1.17-.01H5.8z"/><path class="uuid-e14c33af-f410-4241-b431-a1ef45804b3d" d="M6.24 10.61H4.92c-.76 0-1.34.34-1.75.97-.59.91-.37 2.11.48 2.78.03.02.04.04.04.08v1.45q0 .09-.08.06a3.23 3.23 0 01-1.51-1.19c-.38-.53-.6-1.12-.66-1.77-.08-.96.2-1.82.82-2.56.41-.5.92-.85 1.55-1.03.24-.07.49-.1.74-.12.79-.08 1.58-.06 2.37-.05h.97c.28.06.55.39.54.67-.01.37-.3.67-.66.69-.34.02-.67 0-1.01 0h-.53z"/><path class="uuid-9fc5073b-75e5-4371-8915-0accc9af2b45" d="M25.73 8.35V6.5c0-.05 0-.06.06-.06h1.77c.28 0 .55.03.82.11.43.13.66.43.71.86.03.22.03.45-.03.67-.09.4-.35.63-.73.73-.26.07-.53.09-.79.09h-.96c-.05 0-.06.01-.06.06v1.22c0 .05-.01.06-.06.06h-.69c-.05 0-.06-.01-.06-.06V8.33zm.8-.66v.5c0 .05 0 .06.06.06h.88c.1 0 .19 0 .29-.02.25-.05.41-.18.45-.41a.57.57 0 000-.26.438.438 0 00-.32-.38c-.12-.04-.25-.06-.38-.06h-.94c-.04 0-.05 0-.05.05v.52z"/><path class="uuid-ae13bb1e-f4a3-4935-8578-c2f15d2d615a" d="M20.56 10.26h-.85c-.04 0-.04-.03-.05-.05-.1-.27-.21-.54-.31-.82-.01-.04-.03-.05-.07-.05h-1.55c-.04 0-.06.01-.07.05-.1.27-.19.54-.29.82-.01.04-.03.05-.07.05h-.78c0-.02 0-.04.01-.06.52-1.23 1.03-2.47 1.55-3.7.01-.03.03-.05.07-.05h.76c.03 0 .05 0 .06.04.53 1.25 1.06 2.5 1.59 3.74v.03zm-2.63-1.58h1.13c-.19-.49-.38-.97-.57-1.46-.19.49-.37.97-.56 1.46zM33.2 10.26h-.74q-.14 0-.19-.13c-.09-.25-.19-.49-.28-.74-.01-.03-.03-.05-.06-.05h-1.56c-.04 0-.05.01-.06.05-.1.27-.19.54-.29.82-.01.04-.03.05-.07.05h-.74c-.04 0-.06 0-.04-.05.52-1.24 1.04-2.48 1.56-3.71.01-.03.03-.05.07-.04h.76c.03 0 .05 0 .06.04.53 1.25 1.06 2.5 1.6 3.75v.03zm-2.06-3.04s0 .02-.01.02c-.18.47-.36.93-.54 1.4-.02.05.01.04.04.04h1.02c.05 0 .06 0 .04-.06-.11-.28-.22-.55-.33-.83-.07-.19-.15-.38-.23-.57zM15.59 10.26c-.23 0-.5.01-.78-.01-.4-.04-.77-.16-1.06-.45-.21-.22-.33-.48-.39-.77-.1-.51-.09-1.02.06-1.53.17-.57.57-.89 1.15-1 .17-.03.34-.05.52-.05h1.28c.04 0 .06.01.06.06v.55c0 .04-.01.05-.05.05h-1.27c-.14 0-.27.02-.4.07-.24.1-.36.3-.43.54-.1.33-.1.67-.09 1.01 0 .12.02.25.06.37.09.32.29.47.62.5.24.02.47 0 .71.01h.8c.04 0 .05 0 .05.05v.57c0 .04-.01.05-.05.05h-.78zM22.87 10.26c-.23 0-.5.01-.78-.01-.4-.04-.76-.16-1.05-.45-.2-.21-.33-.46-.39-.75-.11-.51-.09-1.03.05-1.53.17-.58.57-.91 1.15-1.02.17-.03.34-.05.52-.05h1.27c.05 0 .06 0 .06.06v.54c0 .05 0 .06-.06.06h-1.26c-.14 0-.27.02-.4.07-.24.1-.36.3-.43.54-.1.33-.1.67-.09 1.01 0 .12.03.25.06.37.09.32.29.47.62.5.26.02.52 0 .78.01h.72c.05 0 .06.01.06.06v.55c0 .04 0 .05-.05.05h-.78z"/><path class="uuid-e14c33af-f410-4241-b431-a1ef45804b3d" d="M7.66 14.81H9c.15 0 .29.02.42.07.28.12.43.37.41.69-.02.29-.21.51-.51.59-.1.03-.19.04-.29.04H6.42c-.08 0-.16 0-.24-.01-.03 0-.04-.01-.04-.04v-1.29c0-.04.02-.04.05-.04h1.47z"/><path class="uuid-55c9709a-5f8e-47e0-b722-1bc7f7aa17ea" d="M24.75 14.35c.04.03.11.06.12.1.01.04-.04.09-.07.14-.04.07-.08.15-.12.22-.02.03-.02.05.02.05.16 0 .26.1.27.29 0 .05 0 .09.01.14.01.07.05.11.13.11h.58c.08 0 .09 0 .09-.09v-.35c0-.04.01-.05.05-.05.12 0 .12 0 .12.12v.22c0 .12.04.15.16.15h.74c.04 0 .06-.01.05-.05v-.38c0-.04 0-.05.05-.05.13 0 .13 0 .13.12v.5c0 .08 0 .07-.07.07h-.88c-.09 0-.17-.02-.22-.12-.06.11-.14.12-.25.12h-.53c-.12 0-.13-.01-.2-.11-.05.09-.14.11-.23.11h-.89c-.05 0-.06-.01-.06-.06v-.33c-.01-.08-.05-.11-.13-.11-.03 0-.04 0-.04.04v.35c0 .22-.12.38-.32.45-.11.03-.21.04-.32.01a.446.446 0 01-.33-.5c.01-.08.04-.16.08-.24.01-.02.02-.03.05-.01.03.02.07.04.09.07.02.03-.02.07-.03.1-.08.25.09.42.35.38.18-.03.25-.11.25-.3v-.5c0-.04.01-.05.05-.05h.2c.14.01.23.09.25.23.01.07.01.14.01.22 0 .03.01.04.04.04h.75c.07 0 .08-.01.08-.08v-.14c0-.08-.05-.11-.12-.12h-.19c-.03 0-.04 0-.04-.04 0-.09 0-.17.05-.25.08-.14.16-.29.23-.43z"/><path class="uuid-32e04fc7-20be-46de-ab3a-c2843d09aa03" d="M25.04 12.68s-.01.05-.01.07v.78c0 .09-.05.13-.13.12-.05 0-.07-.03-.09-.08v-.03-1.41c0-.03 0-.05.04-.05.05 0 .12-.01.16 0 .04.02.04.09.05.15.06.19.11.38.18.57v-.48-.2c0-.03 0-.04.04-.04.06 0 .13-.02.16 0 .04.03.01.1.01.16v1.27c0 .09-.04.13-.12.12a.09.09 0 01-.09-.09c.03-.2-.05-.37-.11-.55-.03-.11-.07-.21-.1-.33z"/><path class="uuid-55c9709a-5f8e-47e0-b722-1bc7f7aa17ea" d="M22.09 12.84s.07.03.09.05c.05.03.08.08.08.14v.42c0 .13-.08.21-.21.21h-.33c-.09 0-.12-.03-.12-.12v-.93-.46c0-.04 0-.05.05-.05h.33c.16 0 .25.09.26.26v.27c0 .11-.02.2-.16.23zm-.04.38v-.09c0-.17-.02-.19-.19-.18-.04 0-.05.02-.05.05v.32q0 .16.16.15c.04 0 .07-.02.07-.07v-.18zm-.23-.7v.15q0 .09.09.09c.09 0 .12-.03.12-.12v-.18c0-.16-.02-.18-.18-.17-.03 0-.04.01-.04.04v.19z"/><path class="uuid-32e04fc7-20be-46de-ab3a-c2843d09aa03" d="M23.21 12.93v-.55-.12c.03-.11.09-.16.2-.17h.24c.11 0 .18.08.2.18v1.25c0 .09-.03.13-.1.13s-.11-.04-.11-.11v-.41c0-.04 0-.05-.05-.05h-.15c-.04 0-.04.02-.04.05v.42c0 .08-.06.12-.13.11-.05-.01-.08-.05-.08-.11v-.61zm.45-.31v-.25c0-.06-.03-.09-.09-.09h-.06c-.06 0-.09.02-.09.09v.49c0 .02 0 .03.03.03h.17c.03 0 .04 0 .04-.04v-.24z"/><path class="uuid-9e2095a9-6572-4c26-b4a4-7acaecb8047f" d="M26.63 12.9s-.01.04-.01.06v.58c0 .08-.04.12-.11.12-.05 0-.09-.03-.1-.09v-.05-1.38c0-.05.01-.06.06-.06.05 0 .11-.02.14 0 .03.03.01.1.01.15v.57c0 .02-.01.04.01.06v.03zM28.12 12.84v.7c0 .08-.04.12-.11.12-.06 0-.1-.04-.11-.1v-.02-1.39c0-.04 0-.06.05-.05.05 0 .12-.02.15.01s0 .1 0 .15v.59z"/><path class="uuid-55c9709a-5f8e-47e0-b722-1bc7f7aa17ea" d="M26.63 12.9v-.03c.06-.23.12-.46.19-.68.03-.1.03-.1.13-.1h.1c-.05.19-.1.38-.16.56-.05.15-.05.28.01.42.06.14.11.29.16.43.03.08-.01.14-.08.15-.05 0-.08-.02-.1-.06-.08-.23-.16-.46-.23-.69z"/><path class="uuid-9e2095a9-6572-4c26-b4a4-7acaecb8047f" d="M23.07 16.14c0 .06-.04.1-.09.1-.05 0-.09-.04-.09-.1 0-.06.04-.1.09-.1.05 0 .09.04.09.1zM23.3 16.15c0 .06-.04.1-.09.1-.05 0-.09-.05-.09-.11s.04-.1.09-.1c.05 0 .09.04.09.1zM26.59 15.82c0 .06-.04.1-.09.1-.05 0-.09-.04-.09-.1 0-.05.04-.1.09-.1.05 0 .09.04.09.1zM25.54 14.64c0 .06-.04.1-.09.1-.05 0-.09-.04-.09-.1 0-.06.04-.1.09-.1.05 0 .09.05.09.1z"/><path class="uuid-e006bb44-a1f1-4df0-ac1e-b6677cdfe4fa" d="M22.06 13.21v.18c0 .04-.02.07-.07.07q-.16.01-.16-.15v-.32c0-.03 0-.05.05-.05.17 0 .19.01.19.18v.09z"/><path class="uuid-f76bd861-fde3-44d4-91b0-b6d1087b1b00" d="M21.82 12.51v-.19c0-.03 0-.04.04-.04.16 0 .18.01.18.17v.18c0 .09-.03.12-.12.12q-.09 0-.09-.09v-.15zM23.66 12.61v.24c0 .03 0 .04-.04.04h-.17c-.02 0-.03 0-.03-.03v-.49c0-.06.03-.08.09-.09h.06c.06 0 .09.03.09.09v.25z"/></svg>